<svg xmlns="http://www.w3.org/2000/svg" viewBox="0 0 500 500" width="500" height="500" preserveAspectRatio="xMidYMid meet" style="width: 100%; height: 100%; transform: translate3d(0px, 0px, 0px);"><defs><clipPath id="__lottie_element_2"><rect width="500" height="500" x="0" y="0"></rect></clipPath><clipPath id="__lottie_element_10"><path d="M0,0 L500,0 L500,500 L0,500z"></path></clipPath><filter id="__lottie_element_27" filterUnits="objectBoundingBox" x="0%" y="0%" width="100%" height="100%"><feComponentTransfer in="SourceGraphic"><feFuncA type="table" tableValues="1.0 0.0"></feFuncA></feComponentTransfer></filter><mask id="__lottie_element_26" mask-type="alpha"><g filter="url(#__lottie_element_27)"><rect width="500" height="500" x="0" y="0" fill="#ffffff" opacity="0"></rect><g clip-path="url(#__lottie_element_28)" transform="matrix(1,0,0,1,0,0)" opacity="1" style="display: block;"><g transform="matrix(3.700000047683716,0,0,3.700000047683716,246.3000030517578,298.5588073730469)" opacity="1" style="display: block;"><g opacity="1" transform="matrix(1,0,0,1,-26.437999725341797,0.43799999356269836)"><path stroke-linecap="butt" stroke-linejoin="miter" fill-opacity="0" stroke-miterlimit="4" stroke="rgb(8,168,138)" stroke-opacity="1" stroke-width="0" d=" M0,-6.5625 C3.6218438148498535,-6.5625 6.5625,-3.6218438148498535 6.5625,0 C6.5625,3.6218438148498535 3.6218438148498535,6.5625 0,6.5625 C-3.6218438148498535,6.5625 -6.5625,3.6218438148498535 -6.5625,0 C-6.5625,-3.6218438148498535 -3.6218438148498535,-6.5625 0,-6.5625z"></path><path fill="rgb(8,168,138)" fill-opacity="1" d=" M0,-6.5625 C3.6218438148498535,-6.5625 6.5625,-3.6218438148498535 6.5625,0 C6.5625,3.6218438148498535 3.6218438148498535,6.5625 0,6.5625 C-3.6218438148498535,6.5625 -6.5625,3.6218438148498535 -6.5625,0 C-6.5625,-3.6218438148498535 -3.6218438148498535,-6.5625 0,-6.5625z"></path></g></g><g transform="matrix(3.700000047683716,0,0,3.700000047683716,346.20001220703125,188.4838104248047)" opacity="1" style="display: block;"><g opacity="1" transform="matrix(1,0,0,1,-26.437999725341797,0.43799999356269836)"><path stroke-linecap="butt" stroke-linejoin="miter" fill-opacity="0" stroke-miterlimit="4" stroke="rgb(8,168,138)" stroke-opacity="1" stroke-width="0" d=" M0,-6.5625 C3.6218438148498535,-6.5625 6.5625,-3.6218438148498535 6.5625,0 C6.5625,3.6218438148498535 3.6218438148498535,6.5625 0,6.5625 C-3.6218438148498535,6.5625 -6.5625,3.6218438148498535 -6.5625,0 C-6.5625,-3.6218438148498535 -3.6218438148498535,-6.5625 0,-6.5625z"></path><path fill="rgb(8,168,138)" fill-opacity="1" d=" M0,-6.5625 C3.6218438148498535,-6.5625 6.5625,-3.6218438148498535 6.5625,0 C6.5625,3.6218438148498535 3.6218438148498535,6.5625 0,6.5625 C-3.6218438148498535,6.5625 -6.5625,3.6218438148498535 -6.5625,0 C-6.5625,-3.6218438148498535 -3.6218438148498535,-6.5625 0,-6.5625z"></path></g></g><g transform="matrix(3.700000047683716,0,0,3.700000047683716,446.1000061035156,161.65879821777344)" opacity="1" style="display: block;"><g opacity="1" transform="matrix(1,0,0,1,-26.437999725341797,0.43799999356269836)"><path stroke-linecap="butt" stroke-linejoin="miter" fill-opacity="0" stroke-miterlimit="4" stroke="rgb(8,168,138)" stroke-opacity="1" stroke-width="0" d=" M0,-6.5625 C3.6218438148498535,-6.5625 6.5625,-3.6218438148498535 6.5625,0 C6.5625,3.6218438148498535 3.6218438148498535,6.5625 0,6.5625 C-3.6218438148498535,6.5625 -6.5625,3.6218438148498535 -6.5625,0 C-6.5625,-3.6218438148498535 -3.6218438148498535,-6.5625 0,-6.5625z"></path><path fill="rgb(8,168,138)" fill-opacity="1" d=" M0,-6.5625 C3.6218438148498535,-6.5625 6.5625,-3.6218438148498535 6.5625,0 C6.5625,3.6218438148498535 3.6218438148498535,6.5625 0,6.5625 C-3.6218438148498535,6.5625 -6.5625,3.6218438148498535 -6.5625,0 C-6.5625,-3.6218438148498535 -3.6218438148498535,-6.5625 0,-6.5625z"></path></g></g></g></g></mask><clipPath id="__lottie_element_28"><path d="M0,0 L500,0 L500,500 L0,500z"></path></clipPath><clipPath id="__lottie_element_48"><path d="M0,0 L500,0 L500,500 L0,500z"></path></clipPath></defs><g clip-path="url(#__lottie_element_2)"><g mask="url(#__lottie_element_26)" style="display: block;"><g clip-path="url(#__lottie_element_48)" transform="matrix(1,0,0,1,0,0)" opacity="1"><g transform="matrix(3.700000047683716,0,0,3.700000047683716,250,250)" opacity="1" style="display: block;"><g opacity="1" transform="matrix(1,0,0,1,0,0)"><path stroke-linecap="round" stroke-linejoin="round" fill-opacity="0" stroke="rgb(190,190,190)" stroke-opacity="1" stroke-width="5.6000000000000005" d=" M-27.516000747680664,-35.25 C-27.516000747680664,-35.25 -27.516000747680664,35.5 -27.516000747680664,35.5"></path></g></g><g transform="matrix(3.700000047683716,0,0,3.700000047683716,349.8999938964844,250)" opacity="1" style="display: block;"><g opacity="1" transform="matrix(1,0,0,1,0,0)"><path stroke-linecap="round" stroke-linejoin="round" fill-opacity="0" stroke="rgb(190,190,190)" stroke-opacity="1" stroke-width="5.6000000000000005" d=" M-27.516000747680664,-35.25 C-27.516000747680664,-35.25 -27.516000747680664,35.5 -27.516000747680664,35.5"></path></g></g><g transform="matrix(3.700000047683716,0,0,3.700000047683716,449.8000183105469,250)" opacity="1" style="display: block;"><g opacity="1" transform="matrix(1,0,0,1,0,0)"><path stroke-linecap="round" stroke-linejoin="round" fill-opacity="0" stroke="rgb(190,190,190)" stroke-opacity="1" stroke-width="5.6000000000000005" d=" M-27.516000747680664,-35.25 C-27.516000747680664,-35.25 -27.516000747680664,35.5 -27.516000747680664,35.5"></path></g></g></g></g><g clip-path="url(#__lottie_element_10)" transform="matrix(1,0,0,1,0,0)" opacity="1" style="display: block;"><g transform="matrix(3.700000047683716,0,0,3.700000047683716,246.3000030517578,298.5588073730469)" opacity="1" style="display: block;"><g opacity="1" transform="matrix(1,0,0,1,-26.437999725341797,0.43799999356269836)"><path stroke-linecap="butt" stroke-linejoin="miter" fill-opacity="0" stroke-miterlimit="4" stroke="rgb(224,224,224)" stroke-opacity="1" stroke-width="5.6000000000000005" d=" M0,-6.5625 C3.6218438148498535,-6.5625 6.5625,-3.6218438148498535 6.5625,0 C6.5625,3.6218438148498535 3.6218438148498535,6.5625 0,6.5625 C-3.6218438148498535,6.5625 -6.5625,3.6218438148498535 -6.5625,0 C-6.5625,-3.6218438148498535 -3.6218438148498535,-6.5625 0,-6.5625z"></path></g></g><g transform="matrix(3.700000047683716,0,0,3.700000047683716,346.20001220703125,188.4838104248047)" opacity="1" style="display: block;"><g opacity="1" transform="matrix(1,0,0,1,-26.437999725341797,0.43799999356269836)"><path stroke-linecap="butt" stroke-linejoin="miter" fill-opacity="0" stroke-miterlimit="4" stroke="rgb(224,224,224)" stroke-opacity="1" stroke-width="5.6000000000000005" d=" M0,-6.5625 C3.6218438148498535,-6.5625 6.5625,-3.6218438148498535 6.5625,0 C6.5625,3.6218438148498535 3.6218438148498535,6.5625 0,6.5625 C-3.6218438148498535,6.5625 -6.5625,3.6218438148498535 -6.5625,0 C-6.5625,-3.6218438148498535 -3.6218438148498535,-6.5625 0,-6.5625z"></path></g></g><g transform="matrix(3.700000047683716,0,0,3.700000047683716,446.1000061035156,161.65879821777344)" opacity="1" style="display: block;"><g opacity="1" transform="matrix(1,0,0,1,-26.437999725341797,0.43799999356269836)"><path stroke-linecap="butt" stroke-linejoin="miter" fill-opacity="0" stroke-miterlimit="4" stroke="rgb(224,224,224)" stroke-opacity="1" stroke-width="5.6000000000000005" d=" M0,-6.5625 C3.6218438148498535,-6.5625 6.5625,-3.6218438148498535 6.5625,0 C6.5625,3.6218438148498535 3.6218438148498535,6.5625 0,6.5625 C-3.6218438148498535,6.5625 -6.5625,3.6218438148498535 -6.5625,0 C-6.5625,-3.6218438148498535 -3.6218438148498535,-6.5625 0,-6.5625z"></path></g></g></g><g class="com" style="display: none;"><g><path></path></g><g><path></path></g><g><path></path></g><g><path></path></g><g><path></path></g><g><path></path></g><g><path></path></g><g><path></path></g><g><path></path></g><g><path></path></g><g><path></path></g><g><path></path></g></g></g></svg>